PathFileType	4	(X/Y/Z)	C:/Users/opensim2020/Desktop/walking_exp_matlab/subject06_walking13_straight_03.trc																																																																																																																																																				
DataRate	CameraRate	NumFrames	NumMarkers	Units	OrigDataRate	OrigDataStartFrame	OrigNumFrames																																																																																																																																																
100	100	7	50	mm	100	2272	172																																																																																																																																																
Frame#	Time	LFHD			RFHD			LBHD			RBHD			C7			T10			CLAV			STRN			RBAK			LSHO			LUPA			LELB			LFRM			LWRA			LWRB			LFIN			RSHO			RUPA			RELB			RFRM			RWRA			RWRB			RFIN			LASI			RASI			LPSI			RPSI			LTHI			LKNE			LTIB			LANK			LHEE			LTOE			RTHI			RKNE			RTIB			RANK			RHEE			RTOE			*39			*40			*41			*42			*43			*44			*45			*46			*47			*48			*49		
		X1	Y1	Z1	X2	Y2	Z2	X3	Y3	Z3	X4	Y4	Z4	X5	Y5	Z5	X6	Y6	Z6	X7	Y7	Z7	X8	Y8	Z8	X9	Y9	Z9	X10	Y10	Z10	X11	Y11	Z11	X12	Y12	Z12	X13	Y13	Z13	X14	Y14	Z14	X15	Y15	Z15	X16	Y16	Z16	X17	Y17	Z17	X18	Y18	Z18	X19	Y19	Z19	X20	Y20	Z20	X21	Y21	Z21	X22	Y22	Z22	X23	Y23	Z23	X24	Y24	Z24	X25	Y25	Z25	X26	Y26	Z26	X27	Y27	Z27	X28	Y28	Z28	X29	Y29	Z29	X30	Y30	Z30	X31	Y31	Z31	X32	Y32	Z32	X33	Y33	Z33	X34	Y34	Z34	X35	Y35	Z35	X36	Y36	Z36	X37	Y37	Z37	X38	Y38	Z38	X39	Y39	Z39	X40	Y40	Z40	X41	Y41	Z41	X42	Y42	Z42	X43	Y43	Z43	X44	Y44	Z44	X45	Y45	Z45	X46	Y46	Z46	X47	Y47	Z47	X48	Y48	Z48	X49	Y49	Z49	X50	Y50	Z50
																																																																																																																																																							
87	0.86	176.67896	1653.52502	-1074.86218	162.6272	1644.73975	-943.75525	41.65273	1608.37781	-1088.99902	29.43528	1603.76941	-960.40631	28.72796	1446.56165	-1031.79883	-6.97207	1116.4967	-1020.97711	138.1396	1369.60449	-1020.35132	182.40204	1197.33545	-1022.34644	-53.19611	1274.5708	-955.86237	99.69429	1402.26794	-1186.79004	70.13661	1203.60156	-1258.56531	41.28967	1094.02087	-1268.75159	40.41858	943.91461	-1293.60669	83.28704	820.06531	-1252.6012	23.40644	826.53168	-1292.1449	45.32536	737.1521	-1287.88391	74.86655	1400.06128	-865.68298	64.97211	1201.45166	-774.29669	103.00549	1085.5647	-755.75763	159.84669	980.67853	-734.49084	271.01721	877.70239	-760.94592	219.85745	857.37671	-723.27948	284.56821	804.54541	-716.68896	181.65948	969.23871	-1123.9054	165.8372	959.69348	-906.1532	22.57648	988.16345	-1108.81909	17.40295	978.61859	-942.18829	150.0976	652.24884	-1196.55286	173.03192	490.72464	-1171.63623	157.69952	233.38554	-1156.29346	169.99612	62.77808	-1108.70886	130.38985	48.89173	-1062.14148	315.97305	36.87627	-1100.28455	130.29117	617.85321	-846.94318	150.38177	491.95209	-854.18933	-40.33844	325.21704	-869.72034	-190.0901	222.96484	-924.27368	-220.32446	244.87256	-974.32172	-164.00864	66.37134	-924.09448	73.97116	1699.76721	-1026.77234	NaN	NaN	NaN	NaN	NaN	NaN	NaN	NaN	NaN	NaN	NaN	NaN	NaN	NaN	NaN	NaN	NaN	NaN	NaN	NaN	NaN	NaN	NaN	NaN	NaN	NaN	NaN	NaN	NaN	NaN
88	0.87	187.28143	1654.44836	-1075.31165	173.11629	1645.69275	-944.18701	52.10464	1609.47205	-1089.47656	39.8868	1604.88379	-960.85059	39.09171	1447.61365	-1032.49121	3.58162	1117.14197	-1021.99432	148.37263	1370.38989	-1020.83948	192.48218	1197.96838	-1023.04675	-42.94023	1274.95752	-957.98322	110.50805	1403.0741	-1187.52283	83.90177	1203.87292	-1260.16211	57.19715	1093.82312	-1271.18994	59.97062	943.77637	-1296.14233	105.71059	821.09955	-1255.21472	45.85263	825.84241	-1294.63208	70.37836	737.43958	-1291.01282	84.72928	1400.36694	-865.99854	72.74863	1201.06335	-775.83307	110.06392	1084.85938	-757.10126	164.52071	978.56049	-736.14581	273.33743	873.10736	-762.12762	221.30994	853.81232	-724.93561	284.67111	799.41687	-718.27185	192.37448	969.6748	-1124.53516	176.35962	960.27045	-906.46741	32.97803	988.82605	-1109.62427	27.73977	978.8316	-942.93378	157.73376	652.8042	-1196.82275	177.5554	490.77139	-1172.15906	159.2316	233.64195	-1156.37561	170.09058	62.88301	-1108.48315	130.43642	49.04367	-1061.99658	315.98666	36.82952	-1100.42786	146.16269	619.315	-846.99963	170.52112	494.18164	-853.76001	-19.01584	327.37912	-870.3363	-169.84296	227.76202	-925.14679	-200.69972	248.68797	-975.31445	-141.97221	71.31132	-922.28235	84.61758	1700.84595	-1027.255	NaN	NaN	NaN	NaN	NaN	NaN	NaN	NaN	NaN	NaN	NaN	NaN	NaN	NaN	NaN	NaN	NaN	NaN	NaN	NaN	NaN	NaN	NaN	NaN	NaN	NaN	NaN	NaN	NaN	NaN
89	0.88	197.80478	1655.30347	-1075.63196	183.63167	1646.40234	-944.51105	62.61454	1610.55688	-1089.92969	50.32153	1606.00916	-961.26971	49.37691	1448.5592	-1033.1947	14.14173	1117.78003	-1023.0224	158.63307	1371.08264	-1021.2431	202.56055	1198.60754	-1023.6825	-32.84103	1275.56201	-959.80426	121.23438	1403.83313	-1188.17444	97.86221	1203.99829	-1261.5531	73.48111	1093.43518	-1273.54736	79.90121	943.65247	-1298.68042	128.05508	822.05225	-1257.87024	68.45554	825.3501	-1297.2627	95.88824	737.97571	-1294.30396	94.57182	1400.7157	-866.33679	80.36102	1200.90027	-777.55133	117.14868	1084.37122	-758.68451	169.02998	976.69849	-737.83105	274.92743	868.4126	-763.7984	222.14749	850.45813	-726.45483	284.25433	794.48926	-719.78259	202.74355	970.15247	-1125.16956	186.90919	961.01062	-906.90619	43.23595	989.51782	-1110.25488	37.89982	979.33795	-943.35315	165.16931	653.33289	-1196.93604	181.96007	490.81696	-1172.56055	161.0921	233.85744	-1156.56592	170.24522	62.97633	-1108.31018	130.4538	49.19684	-1061.84265	315.9408	36.80154	-1100.60461	161.87999	621.23309	-847.02069	189.90401	496.84006	-853.65607	1.4509	330.46686	-871.05145	-148.90822	231.06345	-925.71143	-181.0569	250.72687	-975.83191	-117.02598	75.79373	-920.60162	95.08423	1701.65649	-1027.646	NaN	NaN	NaN	NaN	NaN	NaN	NaN	NaN	NaN	NaN	NaN	NaN	NaN	NaN	NaN	NaN	NaN	NaN	NaN	NaN	NaN	NaN	NaN	NaN	NaN	NaN	NaN	NaN	NaN	NaN
90	0.89	208.34453	1655.99487	-1075.80994	194.06921	1647.15491	-944.75415	73.0662	1611.57739	-1090.19604	60.72295	1606.94897	-961.55334	59.44871	1449.33801	-1033.84326	24.59189	1118.52393	-1023.97803	168.75648	1371.79175	-1021.6684	212.53705	1199.25232	-1024.36914	-22.75547	1276.17566	-961.32245	131.68597	1404.5238	-1188.77612	111.93427	1204.06018	-1262.82019	89.91695	1093.21143	-1275.69653	100.1865	943.68243	-1301.13586	151.32803	823.43036	-1260.38293	91.26064	825.08069	-1299.93286	121.93065	738.80383	-1297.80225	104.39172	1401.23877	-866.82245	87.99734	1200.87549	-779.33612	124.04129	1084.08606	-760.41241	173.3051	975.08527	-739.61761	276.27942	864.01984	-765.28595	223.06212	847.32001	-728.36377	283.28601	789.82581	-721.41809	213.01558	970.67657	-1125.92834	197.59868	961.95026	-907.56287	53.39849	990.20038	-1110.68835	48.2714	979.91699	-943.73932	172.65005	653.83435	-1196.92334	186.36615	490.82434	-1172.79333	163.27443	233.93355	-1156.82471	170.42737	63.06204	-1108.15417	130.49814	49.37428	-1061.74634	315.86514	36.69833	-1100.797	177.55946	623.41138	-847.18115	208.93614	499.85956	-854.0423	21.9077	333.93518	-871.38641	-127.35471	232.79688	-925.96613	-160.69672	251.13261	-976.02557	-88.65369	79.9883	-917.95251	105.64487	1702.55066	-1027.83838	NaN	NaN	NaN	NaN	NaN	NaN	NaN	NaN	NaN	NaN	NaN	NaN	NaN	NaN	NaN	NaN	NaN	NaN	NaN	NaN	NaN	NaN	NaN	NaN	NaN	NaN	NaN	NaN	NaN	NaN
91	0.9	218.83131	1656.82678	-1075.85242	204.41423	1647.71826	-944.81964	83.47679	1612.63928	-1090.46069	70.88833	1607.71033	-961.81738	69.56876	1450.07715	-1034.49292	34.73566	1119.52197	-1024.90918	178.83519	1372.50867	-1022.07159	222.46339	1199.89551	-1025.01086	-12.58027	1276.71252	-962.63153	141.96796	1405.09741	-1189.26111	126.11551	1204.17517	-1263.96558	106.68261	1092.95752	-1277.6543	120.66058	943.85956	-1303.43665	174.18623	824.78595	-1262.78821	114.48602	824.99347	-1302.37024	148.19034	740.03998	-1301.26489	114.23855	1401.83264	-867.29095	95.46854	1201.07434	-781.16095	130.67146	1083.84875	-762.18658	177.36719	973.64886	-741.49158	277.25577	859.82178	-766.9281	223.38077	844.49481	-730.14667	281.99496	785.44666	-722.89728	223.01915	971.12732	-1126.77539	208.26419	963.02478	-908.31439	63.40498	990.93915	-1110.92566	57.89606	980.85815	-943.44647	179.7977	654.17792	-1196.80444	190.84563	490.80688	-1173.00037	165.65739	234.04144	-1156.87109	170.66295	63.12569	-1107.97058	130.50845	49.54556	-1061.6239	315.95261	36.7035	-1100.88379	193.40794	625.74615	-847.37585	228.20056	503.05081	-854.50574	43.26906	336.17429	-872.50146	-104.98588	232.81619	-925.99274	-139.54744	250.02271	-976.00787	-62.20488	81.47517	-918.03729	116.18151	1703.49792	-1027.89978	NaN	NaN	NaN	NaN	NaN	NaN	NaN	NaN	NaN	NaN	NaN	NaN	NaN	NaN	NaN	NaN	NaN	NaN	NaN	NaN	NaN	NaN	NaN	NaN	NaN	NaN	NaN	NaN	NaN	NaN
92	0.91	229.28381	1657.61572	-1075.79614	214.82541	1648.22266	-944.80951	93.92531	1613.65198	-1090.61743	81.18241	1608.52136	-962.05273	79.66268	1450.77612	-1035.13159	45.14562	1120.09692	-1025.69287	188.82115	1373.18896	-1022.55548	232.36502	1200.53552	-1025.67969	-2.58602	1277.40881	-963.53125	152.17245	1405.7085	-1189.82544	140.32721	1204.34265	-1264.89404	123.55723	1092.95093	-1279.60693	141.59076	944.31989	-1305.54114	198.38203	826.90674	-1265.25818	138.10849	825.26135	-1304.85901	174.64824	741.72333	-1304.75269	124.06844	1402.47278	-867.78784	103.45129	1201.40466	-782.38177	137.07314	1083.75342	-763.94952	181.12695	972.41418	-743.36749	277.46747	855.51245	-768.75592	223.27669	841.99567	-731.7821	280.60007	781.36041	-724.31799	232.97141	971.43274	-1127.67395	218.84785	964.22015	-909.10553	73.34885	991.61102	-1111.15039	68.70229	981.63177	-943.98346	186.84645	654.38342	-1196.59583	195.56813	490.68002	-1172.96289	167.99251	234.2094	-1156.75488	171.00124	63.2672	-1107.75635	130.81331	49.66658	-1061.22644	316.11249	36.70643	-1100.97144	209.31804	628.12653	-847.758	247.27664	506.40778	-855.16931	64.73177	337.71335	-873.15204	-81.91933	231.50546	-925.75488	-117.69438	247.42986	-975.90509	-33.34134	82.67834	-917.46698	126.76775	1704.29736	-1027.85791	NaN	NaN	NaN	NaN	NaN	NaN	NaN	NaN	NaN	NaN	NaN	NaN	NaN	NaN	NaN	NaN	NaN	NaN	NaN	NaN	NaN	NaN	NaN	NaN	NaN	NaN	NaN	NaN	NaN	NaN
93	0.92	239.79935	1658.19922	-1075.62622	225.1008	1648.5155	-944.69952	104.25815	1614.68433	-1090.75208	91.42789	1609.20996	-962.15796	89.60378	1451.5155	-1035.67432	55.33717	1120.80566	-1026.38257	198.75143	1373.84631	-1023.01208	242.27548	1201.20264	-1026.33289	7.49964	1277.97461	-964.3562	162.18279	1406.32043	-1190.30396	154.57069	1204.6438	-1265.74377	140.80632	1092.97656	-1281.3219	162.88272	945.02795	-1307.18921	220.76822	828.47968	-1266.91699	161.94986	825.88013	-1307.26892	201.43542	744.00806	-1308.19702	133.92894	1403.09448	-868.28662	111.1273	1201.88245	-783.72314	143.23038	1083.71167	-765.6817	184.70618	971.25702	-745.20886	278.00427	851.76593	-770.30817	223.24869	839.70032	-733.44885	278.79715	777.47833	-725.9201	242.76991	971.61011	-1128.64758	229.41335	965.40509	-909.84613	83.33444	992.16315	-1111.36938	78.78132	982.7312	-944.01392	194.0067	654.39746	-1196.43481	199.92152	490.54324	-1172.85364	170.24121	234.40233	-1156.34485	171.31482	63.36605	-1107.42029	130.63789	49.98711	-1061.27197	316.27985	36.64075	-1101.00452	225.28145	630.48932	-848.18707	266.03452	509.87222	-856.04919	86.24378	338.49899	-873.29645	-58.51246	228.63159	-925.92346	-95.33128	243.40712	-975.74652	-4.49198	82.36579	-917.55957	137.28004	1705.07776	-1027.68579	NaN	NaN	NaN	NaN	NaN	NaN	NaN	NaN	NaN	NaN	NaN	NaN	NaN	NaN	NaN	NaN	NaN	NaN	NaN	NaN	NaN	NaN	NaN	NaN	NaN	NaN	NaN	NaN	NaN	NaN
